<svg width="72" height="72" fill="none" xmlns="http://www.w3.org/2000/svg"><circle cx="44" cy="44" r="28" fill="#2C6269"/><path fill-rule="evenodd" clip-rule="evenodd" d="m34 54-2 2h-8l-2-2v-3l-6-3-2 2h-3l-5-5v-3l2-2-3-6H2l-2-2v-8l2-2h3l3-6-2-2v-3l5-5h3l2 2 6-3V2l2-2h8l2 2v3l6 3 2-2h3l5 5v3l-2 2 3 6h3l2 2v8l-2 2h-3l-3 6 2 2v3l-5 5h-3l-2-2-6 3v3Zm-18-8h1l6 3 1 1v4h8v-4l1-1 6-3h2l3 3 5-5-3-3v-2l3-6 1-1h4v-8h-4l-1-1-3-6v-2l3-3-5-5-3 3h-2l-6-3-1-1V2h-8v4l-1 1-6 3h-2l-3-3-5 5 3 3v2l-3 6-1 1H2v8h4l1 1 3 6v2l-3 3 5 5 3-3h1Zm1-7a16 16 0 0 0 22 0c5-5 6-12 3-18a1 1 0 1 0-2 1 14 14 0 1 1-5-6 1 1 0 1 0 1-2 16 16 0 0 0-19 3c-7 6-7 16 0 22Zm22-20a1 1 0 0 1-1-1 1 1 0 0 1 1-1 1 1 0 0 1 1 1 1 1 0 0 1-1 1ZM26 36l-7-7v-2l4-4a1 1 0 0 1 1 0l2 3 6-6h1l4 4v2L27 36h-1Zm-5-8 5 5 9-8-2-2-6 5a1 1 0 0 1-1 0l-3-2-2 2Z" fill="#79C8C7"/></svg>