<svg width="72" height="72" fill="none" xmlns="http://www.w3.org/2000/svg"><circle cx="44" cy="44" r="28" fill="#2C6269"/><path fill-rule="evenodd" clip-rule="evenodd" d="M14 0h14c6 0 11 5 11 10v5a4 4 0 0 1 0 7c-1 4-3 7-6 9v2h3a5 5 0 0 1 5 4c4 1 7 5 7 9v10h-2V46c0-4-2-6-5-7h-1v1l-5 7v9h-2V43a9 9 0 0 1-11 0v13h-2v-9l-5-7v-1c-4 1-6 3-6 7v10H7V46c0-4 3-8 7-9 0-2 3-4 5-4h3v-2a11 11 0 0 1-5-8v-1h-1a4 4 0 0 1 0-7v-4c-2-1-3-4-3-6l1-1V0Zm19 36v-1h3c2 0 3 1 3 2l-1 2-3 5v-6l-1-1-1-1Zm-3-4h1v4l2 2v2a8 8 0 0 1-11 0v-2l2-2v-4a11 11 0 0 0 6 0Zm-10 6v6l-3-5-1-2 3-2h3v1l-1 1-1 1Zm15-27h2v3l-2-3Zm-2 0c1 3 3 5 4 5v6c-1 4-4 8-8 9a9 9 0 0 1-11-9v-6c1 0 3-2 4-5h11Zm-17 6v4a2 2 0 0 1 0-4Zm4-6-2 3v-3h2Zm19 9v-3a2 2 0 0 1 0 4v-1ZM15 6c0 2 2 3 4 3h18c-1-4-4-7-9-7H15l2 2a1 1 0 0 1 0 2h-2Zm9 12a2 2 0 1 1-4 0 2 2 0 0 1 4 0Zm9 2a2 2 0 1 0 0-4 2 2 0 0 0 0 4Zm-6 1 1-4-1-1-2 5a1 1 0 0 0 1 1h2v-1h-1Zm-1 3 4-1 1 1-5 2v-2Zm-9 24a1 1 0 1 1 2 0v5a1 1 0 1 1-2 0v-5Zm19 0a1 1 0 1 1 2 0v5a1 1 0 1 1-2 0v-5Z" fill="#79C8C7"/></svg>