<svg width="72" height="72" fill="none" xmlns="http://www.w3.org/2000/svg"><circle cx="44" cy="44" r="28" fill="#2C6269"/><path fill-rule="evenodd" clip-rule="evenodd" d="M44 5a5 5 0 1 1 3 4l-8 7 1 3a5 5 0 1 1-10-1l-5-2a5 5 0 0 1-7 2l-7 5 1 3a5 5 0 1 1-3-4l8-6-1-2a5 5 0 1 1 10 0l5 2a5 5 0 0 1 6-1l8-8-1-2ZM19 16a1 1 0 0 0 0-1v-1a2 2 0 1 1 0 2ZM9 24a2 2 0 0 0-4 2 2 2 0 1 0 4-2ZM47 6a2 2 0 0 1 2-4 2 2 0 1 1-2 4Zm6 13 1 1v34h1a1 1 0 0 1 0 2H1a1 1 0 0 1 0-2h1V41l2-1h7l1 1v13h4V29l2-1h7l1 1v25h4V34l2-1h7l1 1v20h4V20l2-1h7Zm-2 2v33h-4V21h4ZM37 54V35h-4v19h4ZM19 30h4v24h-4V30ZM9 54V42H5v12h4Zm26-33a2 2 0 1 1 0-5 2 2 0 0 1 0 5Z" fill="#79C8C7"/></svg>