<svg width="160" height="40" fill="none" xmlns="http://www.w3.org/2000/svg"><path fill-rule="evenodd" clip-rule="evenodd" d="M68 30V13h5V8h-5V0h-6v8h-4v5h4v17h6ZM6 18v12H0V8h6v3l2-2 4-1c3 0 5 1 6 4 2-3 4-4 7-4l6 2 2 7v13h-7V15l-3-1-3 1-1 3v12h-6V18l-1-3-2-1-3 1-1 3ZM57 8 45 40h-7l5-13-8-19h7l4 12 5-12h6Zm38 18c-2 3-5 4-9 4-3 0-6-1-8-3s-3-5-3-8 1-6 3-8 5-3 8-3 5 1 7 3 3 5 3 8v2H81l2 3 3 1 5-2 4 3Zm-5-9h-9l2-3 3-1 3 1 1 3Zm23 12-3 1c-3 0-6-1-8-3s-3-5-3-8 1-6 3-8c3-2 5-3 8-3h3l3 3V8h6v22h-6v-3l-3 2Zm-2-5-4-2-1-3 1-4 4-1 3 1 2 4-2 4-3 1Zm23-6v12h-7V8h7v3l2-2 3-1c3 0 6 1 7 4 1-3 3-4 6-4l6 2 2 7v13h-6V18l-1-3-3-1-2 1-1 3v12h-6V18l-1-3-3-1-2 1-1 3Z" fill="#fff"/></svg>